<svg height="1024pt" viewBox="0 0 1024 1024" width="1024pt" xmlns="http://www.w3.org/2000/svg">
    <path d="M431 46c-41.7 1-59.6 2.6-87.9 7.5-43 7.6-75 19.4-106.6 39.4-12.5 7.8-22.4 15.9-31.6 25.6-21.9 23.1-28.6 54.1-17.6 81.3 6.8 16.8 25.8 37.5 47.9 52 7.6 4.9 17.2 10.8 21.5 13 19 9.8 50.4 21.7 68.6 26l7.7 1.8-8.7 4.2c-4.9 2.2-11.5 4.9-14.8 5.9-10.5 3.1-11 9.8-1.3 16.9 2.7 2 4.7 3.9 4.4 4.1-.3.3-4.5-.1-9.3-.8-4.8-.8-15.8-1.4-24.3-1.4-17.9 0-21.6 1.1-24.5 7.1-2.2 4.6-1.6 7 1.5 6.6 4.8-.6 6.8.6 7.7 4.5 1.7 7.5 7.2 9.2 31 9.5 12.7.2 13.4.1 15.8-2.2 3.4-3.2 3.2-5.3-.9-9.3-4.5-4.5-11-7.6-19-8.9-10.5-1.7-8.1-3.1 3.7-2.2 12.3 1.1 31.5.9 69.7-.5 38.5-1.5 41-2 51.6-9.9l5-3.9 14 .8c19.6 1.1 62.7 1 83.8-.1 44.3-2.5 98.8-10.8 137.6-21.1 60.5-16 107.7-43.1 131.4-75.2 6.9-9.4 9.9-15.7 12.7-26.8 3.6-14.1 1.6-30.4-5.5-45.4-3.7-7.9-15.2-22.3-24.2-30.3C743.9 90.3 690 68.1 637 59c-41.3-7-85-11.2-131.5-12.5-11-.3-25.2-.7-31.5-.9s-25.7 0-43 .4zm95.9 8c9.6.6 31.4 2.4 48.5 4 46.6 4.3 76.7 9.6 104 18.2 41.2 13 69.2 30 85.7 52.1 14.7 19.8 19.3 37 15.4 57.2-3.3 17.6-16.1 36.2-35.3 51.3-23.1 18.2-42.8 28.6-77 40.8-33.7 12-78 20.6-131.7 25.5-15.8 1.5-100.8 1.9-102.2.6-.4-.5.4-1.8 2-2.9 2.6-1.9 3.5-4.2 1.9-5.2-1.4-.8-9.2 3.2-16.1 8.3-10 7.4-18.9 11.9-26.8 13.5-11.4 2.4-36.1 4.5-56.3 4.8-21.2.3-22 .1-28-8.9-3.6-5.5-3.7-5.3 6.4-7.1 8-1.5 19.1-6.8 22.6-10.9 5.1-5.7 8.7-14.3 6.1-14.3-.5 0-2.1 1.4-3.4 3.2l-2.5 3.2-12.4-3.8c-17.6-5.4-19.5-6.1-33.1-11.2-36.5-13.9-64.9-33.5-79.4-54.9-9.4-13.9-13.2-25.3-14-42-.5-9.3-.2-12.2 1.6-19C216 108.6 271.1 71.6 348 59.1c17.2-2.8 38.6-5.1 55.9-6.1 18.2-1.1 99.7-.4 123 1zM270.2 328.6c-4.6 2.8-11.6 4.1-12.7 2.5-1.2-2 5.7-5.1 11.5-5.1h5.5zm18.4 4.5c6.3 1.3 8.4 2.4 8.4 4.5 0 2.9-3.1 4.4-9.2 4.4-6.6 0-11.3-1.8-14.9-5.6-2-2.1-2.1-2.7-.9-3.4 2-1.3 9.5-1.2 16.6.1zM276 343.3l2.4 1.7h-2.8c-3.1 0-8.6-4.8-8.6-7.6 0-1.5.6-1.2 3.3 1.3 1.7 1.6 4.3 3.7 5.7 4.6zm26.9.3c-1.9 2.1-3.1 2.4-8.3 2.3l-6.1-.2 4.6-.6c2.7-.4 6.1-1.8 8-3.3 3.9-3 5.2-1.8 1.8 1.8zM643.4 318.2c-2 3.8-1.5 10.7 1.3 18.8l2 5.6-27.6-.1h-27.6l-7.4 2.7c-10.8 4-15.1 6.9-22.6 15-8 8.7-11.7 14.8-14.8 24.3-4.3 13.5-2.3 48.5 2.7 48.5.9 0 1.5-1.7 1.9-4.6.2-2.6 2.4-8.4 4.8-13.3l4.4-8.6.5 7c.5 5.8 1.5 8.6 5.7 16.8l5.1 9.8-1.5 4.7c-2.1 6.5-1.1 89.6 1.2 107.7 3.2 25.4 7.2 43.2 11.1 49.3 1.4 2.1 1.3 2.4-1.6 4.8-4.6 3.9-6.4 11.4-5.7 24.3.5 11.3 1.8 13.7 6.1 12.6 2-.6 1.9-.5-.2 1.4-2.2 2-4.2 6.8-4.2 10.3 0 2.7 3.7 5.8 6.8 5.8 3.7 0 6.9-2.4 9-6.8 1.2-2.7 2.7-4 5.2-4.8 3.6-1.2 4.8-2.8 3-3.9-2.2-1.3-7.1.8-11.9 5.1-2.7 2.4-5.2 4.4-5.5 4.4-1.1 0-.6-4.5.7-6 2.4-3 7.8-6.1 14.4-8.3 8.5-2.8 9.4-4.7 2.1-4.7-5.9.1-11.8 1.9-15.1 4.6-1.2 1-.3-.2 2.1-2.7 2.7-2.8 5.9-5.1 8.3-5.8 2.8-.9 3.9-1.7 3.9-3.2 0-2.7-2-3.2-6.9-1.9-4.5 1.2-11.1 6.3-11.1 8.6 0 .8-.5 1.4-1 1.4-2.5 0 2.2-11 6.5-15 2.2-2.1 3.9-2.6 10.3-3 5.9-.4 7.7-.8 7.7-2 0-3.9-15.7-3.4-20.5.7-1.7 1.4-3 2.3-3 2.1 0-.3.7-2.5 1.6-5 1.6-4.9 4.1-6.7 13.8-9.8 4.9-1.6 16.8-.7 22.6 1.6 6.8 2.7 8 5.2 8 16.3 0 8.9-.3 10.2-3.4 16.6-3.9 8.1-4.6 8.8-18.6 18.4-14.1 9.7-30.9 24.8-31 27.9 0 5.7 23.9 29.8 38.4 38.7 1.5.9 1.3 3.2-1.9 27.5-1.9 14.6-4.7 35-6.2 45.5-3.5 25.3-3.5 25.6.2 27.5l3 1.5-.6 7.5c-.4 4.1-1.5 24.6-2.4 45.5s-2.3 42.6-3 48.3c-.8 5.6-1.2 10.8-.9 11.6.6 1.5 8.5 7 14.2 10 1.7.9 3.2 2 3.2 2.4s-2.4 2-5.2 3.7c-6.3 3.6-14.4 10.9-16.4 14.7-4.2 8.1 1.5 17.8 12.1 20.7 10.1 2.8 27.1.1 38.2-5.9l5.3-2.8 2.1 3.5c3 4.8 10.8 10.7 17.3 13.2 7.2 2.7 20.2 4.3 27.9 3.6 8.7-.9 20.3-4.1 26-7.3 6.8-3.6 13.2-11 14.6-16.8 1.1-4.3 1-5.1-1.5-10.1-1.5-3.2-4-6.3-5.8-7.5l-3.3-2.2 3.1-3.1c1.7-1.7 4.7-6.2 6.6-10l3.5-7-.2-23.5c-.3-24.4-2.6-70.5-4.4-89.5-.8-8.4-.8-12.6.2-18.1l1.2-7.1 2.2 2.5c2.8 3.2 11.6 4.4 14.4 1.8 1.6-1.5 1.9-1.5 3.1-.1 1.7 2.1 7.3 1.9 9.3-.3 4.5-5 7.1-24.3 4.8-35.5-2-9.3-9-15.5-15.9-14.1-3 .6-3 .6-4.5-6.2-.9-3.8-1.9-9.3-2.3-12.1-.6-4.6-.4-5.3 1.2-5.9 5.5-1.9 10.9-5 15.3-9l4.9-4.4-7.8-19.3c-19.2-47.3-18.8-46.6-27-52.5-3.6-2.7-8.4-7-10.5-9.6l-3.9-4.8 2.9-2.2c8.9-6.4 11.3-8.6 14.3-13.1l3.4-5 7.2-.7c12.1-1.1 22-5.8 31.6-15 6.1-5.8 9.1-9.9 13.4-18.4 2.7-5.3 4.3-7.4 6.1-7.8 1.6-.4 3-1.9 3.9-4.1.8-1.9 3.2-6 5.4-9.2 8.9-13.2 12.5-22.7 14.2-38.2.9-8.1.8-11.1-.4-16.3-1.3-5.8-1.4-7.9-.1-6.6.3.3 1.4 2.9 2.4 5.9 3.2 9.1 4.3 7.6 3.5-4.7-.4-6-1.1-12-1.6-13.3-1.4-3.8-.3-3.5 3.6 1 4.6 5.5 5.1 4.3 4.3-11.2-.3-6.5-.4-11.9-.3-11.9.2 0 2 2.5 4.1 5.5 2 3 4.2 5.5 4.8 5.5s.8-3.1.4-8.8c-.8-13.9-8.9-34.2-19.3-48.2-19.8-27-40-44.3-67.9-58.3-19.9-9.9-38.3-16-64.5-21.2-25.4-5-35.9-8.7-45.3-15.9L645 315zm-68.9 106.7c1.5 3.6 3.9 9 5.5 11.8 2.2 4.1 2.4 5.1 1 4.3-4-2.1-9.1-8.6-12.5-15.8-4-8.3-4.1-11-.8-17.9l1.7-3.8 1.3 7.4c.7 4.1 2.4 10.4 3.8 14zm42.4 43.3c18.3 12.4 47.9 27.1 63.4 31.4 18.6 5.2 27.2 7.3 34 8.4l6.9 1.2-.6 3.2c-2.8 13.6-3.9 22.8-4 33.6-.1 11.1.2 13.1 2.3 17.8 4.1 9 14.8 16.3 27.3 18.4 9.3 1.6 12.6-.2 19.9-11.1 3.1-4.6 6.7-9.6 8-11 3.4-3.8 10-8.1 12.5-8.1 2.1 0 5.7 3.2 6.7 6.2 1.1 3-1.3 13-4.5 19-3.4 6.5-14 17.1-21.1 21.3-5.2 3-17 6.4-22.9 6.7-3.1.1-3.9.6-4.9 3.1-.7 1.6-3.3 5-5.8 7.6-6.1 6.3-15.3 9.4-35.7 12.1-8.3 1.1-17.5 2.4-20.4 3-5.9 1.1-30.6 1.3-38.8.3l-5.3-.6.8-3.1c1.5-5.7.8-12-1.8-18.6-1.5-3.6-3.2-8.4-3.8-10.7-1.3-4.8-4.9-9.4-10-12.9-8.7-5.9-11.5-8.3-12.3-10.4-.6-1.6-.5-2.6.4-3.1 2-1.2.5-1.8-2.1-.8-4 1.6-2.1 6 6.5 15.2 7.6 8.1 11 12.4 10.3 13.1-.2.3-2.4 0-4.9-.4-6.9-1.4-15.2-1.2-20.6.5-2.7.8-5.2 1.5-5.6 1.5-1.7 0-5.8-10.5-8.6-22-5.4-22.3-6.7-33.7-8.2-68.5-.5-13.2-1.3-27.9-1.6-32.8-.5-7.6-.4-8.6.9-8.1 2.6.9 14.8-5.7 19.7-10.7l4.5-4.5 4.5 3.3c2.5 1.9 9.2 6.6 14.9 10.5zM720.5 636c1.7 1.8 6.3 5.9 10.3 9.1l7.2 5.8-6.7 5.4c-3.8 3-12.9 9.4-20.3 14.2s-17.3 11.3-22 14.5c-4.7 3.1-10.4 6.7-12.7 7.9l-4.2 2.1-2.4-3.3c-1.4-1.7-4.7-7.7-7.5-13.2l-5.1-9.9 3.7-2.1c4.2-2.4 28-19.4 32.8-23.4 1.7-1.4 4.1-3.3 5.4-4.1 1.2-.8 3.5-2.5 5-3.7 3.1-2.6 9.8-4.4 12-3.2.8.4 2.9 2.2 4.5 3.9zm-82.9.8c.6.4 4 5.2 7.7 10.8 3.7 5.5 7.6 10.9 8.7 11.9 2.5 2.3 2.5 3.2 0 4-3 .9-4.4 4.2-2.7 5.9.8.8 2.6 4.9 4.1 9.3 1.6 4.3 3.5 8.6 4.3 9.5s1.2 2.2.7 2.9c-.5.8-.3 1 .6.4.9-.5 1-.2.6 1.2-.6 1.8 4.5 9.3 6.3 9.3.5 0-.7-1.6-2.5-3.6-1.9-1.9-3.4-4-3.4-4.6 0-.5 1.3.4 2.9 2.1 6 6.4 12.2 5.9 20.1-1.5 2.6-2.4 5-4.4 5.3-4.4 1.5 0 8.1 13.8 12.2 25.6 2.4 7.1 5.2 14.1 6 15.6 1 1.7 1.2 2.8.6 2.8s-1.1-.7-1.1-1.5-.5-1.5-1.1-1.5c-1.6 0-.5 6.4 1.7 9.2 1.4 2 1.5 2 .9.3-.4-1.1-.8-2.7-1-3.5-.1-.8 0-.9.2-.3.3.7.9 1.3 1.5 1.3.5 0 .7-.8.4-1.7-.6-1.4-.4-1.4 1.4.2 1.6 1.4 4.1 2.1 9.2 2.3 4.5.3 6.5.8 5.7 1.3-1.1.7-1 .9.4.9.9 0 1.7-.5 1.7-1 0-1.8 1.6-1.1 1.7.7.1 1 .8 5.6 1.7 10.3 1 5.4 1.7 15.6 1.8 28l.3 19.5-3.4 6.5c-3.1 6.1-5.9 10.4-10.6 15.9-3 3.6-15.7 11.6-21.2 13.4-21.1 6.8-40.2 7-59.8.5-9.4-3.1-25.2-10.5-29.5-13.7l-2.4-1.9 1.7-10.9c1-5.9 2.8-19.8 4.2-30.8 2.1-17.2 4-32.4 6.1-49.1.3-2.6 2.4-7.2 5.8-12.5 2.9-4.6 8.2-14 11.7-20.8 5.8-11.2 6.4-12.9 6.4-18.5 0-5.4-.7-7.6-6.2-19.1-3.3-7.2-6.4-14.9-6.8-17.3l-.7-4.2h3.4c1.8 0 3.8.4 4.4.8zm53.3 1c-1.5.9-7.3 5.5-13 10.1-5.6 4.6-11.7 9.3-13.6 10.3l-3.2 2-2.9-3.4c-5.9-6.7-7.9-9.4-10.5-13.9-1.5-2.5-2.7-4.9-2.7-5.3 0-.3 6-.4 13.3-.1 7.2.3 17.3.2 22.2-.3 14-1.4 13.4-1.5 10.4.6zM634.3 660c7.1 16 7 16.9-2.2 35-7.2 14.2-14.4 26-15.9 26-1.4 0-18.5-14.4-24.4-20.5-3.2-3.3-6.8-7.9-8-10.2-2.1-3.9-2.2-4.5-.8-6.8 1.4-2.2 18.5-16.6 31.5-26.4 2.8-2.1 6.8-5.8 9-8.2 3.7-4.2 4.1-4.3 4.9-2.4.4 1.1 3.1 7.2 5.9 13.5zm112.2 5.5c11.3 29.3 14.9 38.4 17.6 43.7 1.6 3.2 2.9 6.2 2.9 6.7s-5.1 3.4-11.2 6.4c-11.8 5.8-24.4 9.4-33.7 9.9l-5.5.3-4.1-10c-4.8-11.6-11.6-25.1-15.2-30.7-1.4-2.1-2.4-4-2.2-4.1.2-.2 5.4-3.4 11.4-7.2 15-9.5 28.9-19.8 32.1-24.1 1.5-1.9 2.8-3.3 3-3.1.2.1 2.4 5.6 4.9 12.2zm1.5 69.7c0 3.3 2.2 15.8 3.8 21.3.8 2.8 1.1 3 5.4 2.7 6.1-.5 10.5 1.9 12.5 6.6 1.8 4.2 1.4 20.2-.7 28.2-1.3 5.1-4.4 9.9-5.7 8.7-.4-.5-1-3.9-1.3-7.5l-.5-6.7-2.4 4c-5.6 9.4-6.6 10.5-9.1 10.5-3.2 0-6.6-2.4-8.4-5.9-1.2-2.2-1.4-5.8-1-17.2.5-12.6.3-16-1.9-27.4-1.4-7.2-2.8-13.8-3.2-14.8-.5-1.2-.2-1.7 1.1-1.8 1.1 0 3.7-.9 5.9-1.9 5.4-2.5 5.5-2.5 5.5 1.2z"/>
    <path d="M602 462.4c0 .2.7.7 1.6 1 .8.3 1.2.2.9-.4-.6-1-2.5-1.4-2.5-.6zM577.3 488c-1.5.6-2.3 1.8-2.3 3.3 0 2.2.3 2.3 5.3 1.9 4.6-.3 6.1.1 14 4.1l8.7 4.5v-3.7c0-4.3-2.4-7.1-8.2-9.6-4-1.6-13.9-1.9-17.5-.5zM637 502.1c0 2.7 3.5 8.5 5.6 9.3.8.3 5.6 1.1 10.7 1.7 10.9 1.2 15.5 2.3 22 5 4.6 1.9 9.4 1.8 8.1-.2-.3-.5-.9-.7-1.4-.4s-1.2-.6-1.5-2-.7-3.6-1-4.9c-.7-3.6-5-4.7-25.2-6.5-5.7-.5-11.7-1.7-13.4-2.5-4-2-3.9-2-3.9.5zM588.3 514.2c-3.7 4.1-4.2 6.1-3.6 14.3l.6 7.8-2.4-1.6c-1.3-1-2.7-1.7-3.2-1.7s-.7 3.1-.5 7c.4 8.4 2.8 12.2 7.9 13.1 6.4 1 9.8-.7 12.1-5.8 1.8-4 2-6.1 1.6-16.3-.3-9.3-.8-12.3-2.4-15.1-2.6-4.4-6.9-5.1-10.1-1.7zM644.8 526.3c-3.7 3.1-5.1 8.8-4.6 19.3.4 10.1 2 14.2 6.1 16.2 6.2 3 11.2-1.7 13-12.1.8-5.1.7-7.6-.7-13.7-2.5-11.4-7.6-14.9-13.8-9.7zM711 739.6c0 .8.5 1.2 1 .9.6-.4.8-1.1.5-1.6-.9-1.4-1.5-1.1-1.5.7zM730.1 773.6c0 1.1.3 1.4.6.6.3-.7.2-1.6-.1-1.9-.3-.4-.6.2-.5 1.3zM0 380.6v41.7l6-.7c3.3-.4 8-1.3 10.5-2l4.4-1.4 1 5c.6 2.7 1.1 5.4 1.1 6 0 .7-3.6.9-11.5.6L0 429.3v309l5.3-.6c13-1.4 43.4-13 53.5-20.4 6.9-5.1 14.7-12.1 27.8-24.9l13.1-12.9-2.3 5.7c-1.3 3.2-2.4 6.4-2.4 7.1 0 1.9 2.9 4.3 6 5l2.6.6.1 13.1.2 13.2 4 5.1c2.2 2.9 6.3 7.4 9.1 10.2l5.1 5-.7 6.7c-.5 5.1-.3 7.4 1 9.9 1.4 2.8 1.4 3.4.2 4.8-3 3.3-5.6 10.6-5.6 15.8 0 6.6.5 7.8 4.4 10.3 2.8 1.7 3.2 2.4 2.9 5.2-1 8.2-4.7 33.2-7.9 53.3-4.5 27.9-4.5 37.7 0 42.4 2.4 2.5 4 3.2 8.8 3.7l5.8.7V909c0 6.4-.3 15.8-.6 20.8l-.7 9-4.1 1.9c-11.9 5.3-18.6 17.6-14.2 26.1 3.9 7.5 16.1 13.4 33.1 16.1 17.8 2.9 25 2.4 41.3-3 3.4-1.1 8.3-2.4 11-2.7 3.9-.6 4.8-1.1 5-3 .2-1.2.5-2.2.7-2.2s3.4.7 7.2 1.7c12.9 3.1 42.4 1.6 64.8-3.4 8.2-1.8 9.5-2.6 9.5-6.2 0-3-.4-3.2-35.5-19.1l-17-7.7-.3-24.7-.2-24.6h3c6.3 0 17.4-7.6 20.9-14.4 1.3-2.3 1.3-4.8.3-16.9-1.3-15.1-2.2-20-10-53.2-2.7-11.6-5.8-25.9-6.8-31.8l-1.8-10.8 2.9-14.2c1.5-7.8 3-18.4 3.3-23.5l.4-9.2 2 3.7c2.9 5.5 5.5 8 11.2 10.8 8.8 4.4 15.5 2.8 22.6-5.3 2.2-2.5 8.5-11.7 14.1-20.6 5.5-8.9 12.2-18.5 14.9-21.3l4.9-5.3 15.5-2.5c17.8-2.9 24.1-5 32.9-10.8 14-9.5 14.3-19.8.7-25.6-6.1-2.6-20.4-4.5-28-3.6l-5.5.6 6.3-6c8-7.7 9.9-12.4 6.8-16.6-1.2-1.7-1.6-1.7-4.6-.5-8.9 3.7-33 25.2-37 33-1.2 2.4-2.3 6.1-2.4 8.2-.1 2.2-.7 4.2-1.3 4.6-.5.4-4.6 5.2-9 10.7s-9.2 11.3-10.7 13c-1.5 1.6-3.8 5.4-5.2 8.2-1.5 2.9-3 5.1-3.4 4.8s-1.3-2.8-2-5.6c-1-4-1-5.6 0-7.4 1.1-2 .8-2.9-2.4-7.8-3.1-4.6-3.6-6.2-3.1-8.9.6-3.2.2-3.8-8.9-12.6-5.3-5.1-11.5-10.2-13.9-11.2-4.4-2-14.4-2.6-22.1-1.2-3.5.6-4.1 1.1-5.4 5-2.8 8.6-9.6 12.3-26.2 14.1-13.8 1.5-21.2-.3-27.2-6.6-3.2-3.3-9.1-15.4-8-16.4.7-.7 15.9-6.9 16.8-6.9.2 0 .4 3.6.4 7.9 0 10.8 1.7 12.4 14.4 13.7 7.8.8 15.5-.9 19-4.1 2.3-2.2 2.6-3.2 2.6-9.6 0-6.9.1-7.1 2.3-6.6 16.6 4.2 31.4 7 36.7 7 11.5-.1 22.6-5.9 31.1-16.2 5.7-6.9 13.9-22.1 17.9-32.9 5.6-15.5 9-39.6 9-64.6 0-12.7 2-26.4 5.7-38l2.5-7.8 3.3 3.6c1.8 2 4 3.6 4.9 3.6 1.3 0 .9-1.4-2-7.2l-3.6-7.2 1.7-7.3c1.4-5.7 1.6-10.2 1.2-21-.9-25.3-6.8-39.1-24.3-56.7-18.6-18.5-56.2-35.6-90.4-41.2-17.7-2.9-50.5-2.6-66 .5-21.6 4.4-37.8 10.6-55 21.2-14.2 8.7-20 10.7-20 7.1 0-3.5-5.1-12.1-9.9-16.5-7.3-6.8-16.8-11.1-30.9-14.1C9.5 340.2 3.1 339 2 339c-2 0-2 .8-2 41.6zm67.2 4.2c-9.4 9.9-15.2 18.5-19.7 29.7-4.1 10.1-9.5 28.5-9.5 32.4-.1 2.5-.3 2.4-4.4-2.1-5.7-6.2-8.2-15.6-7.9-30 .1-11.3 2-18.7 6.3-24.5 6.5-8.8 22.1-14.4 37.4-13.5l5.1.3zm206.1 75.7c-.3.9-.8 1.4-1 1.1-.3-.3-.2-.9.2-1.5.9-1.6 1.5-1.3.8.4zm-2.9 6.2c-1.9 4.5-7.4 19.4-7.4 20.1 0 .3-.2.3-.5 0-.9-.8 7.9-23.8 9-23.8.3 0-.2 1.7-1.1 3.7zm31.2 4c1.8 2.4 2.2 3.7 1.5 5-1.8 3.4-7.1 26.9-8.1 35.8-.5 4.9-1 13.3-1 18.6 0 29-6 55.3-16.8 73.4-6 10.1-17.2 21.7-23.7 24.5-7.5 3.2-14.6 3.5-24.5 1.1-20.8-5-42.3-8.9-69.5-12.6-23.9-3.2-31.7-6.7-38.3-17-4.1-6.4-10.2-19.4-10.2-21.7 0-1.9-.1-2-1.2-.6-.7.9-3.3 2.7-5.8 4-3.7 1.9-6 2.3-13.5 2.3-6.5 0-9.9-.5-12.1-1.7-5.1-2.8-11.3-10-13.4-15.6-5.7-15.2 1.3-38.1 13.4-44.1 4.9-2.4 5-2.5 9.5-.7 11.3 4.3 18.6 5.8 28.6 5.9 15 0 36.3-5.2 50.8-12.4 6.5-3.3 20.8-12.4 24.2-15.6 4.2-3.9 10.2-7.9 16.3-11.1 3.5-1.8 7.8-4.3 9.6-5.7s3.6-2.5 3.9-2.5c.4 0-.5 2.5-2 5.5-2.1 4.2-3.2 5.5-5 5.5-1.2 0-4.5.5-7.3 1.1-8.5 1.8-14.9 10.3-15.3 20.2l-.2 5.2 4.6.9c2.5.5 6.7.6 9.2.2 5.1-.8 6.5-2.1 19.9-19 3.5-4.4 9.2-10.4 12.7-13.5l6.4-5.6-2.6 5c-1.4 2.7-3.3 7.7-4.2 11-1.5 6.1-2.1 18.7-.7 18.3.4-.1 1.8.4 3.2 1.2 3 1.7 17.2 2.5 27.4 1.5l7.4-.7 3.5-7.1c2-4 4.8-11.3 6.2-16.2 1.5-5 5-13.9 7.8-19.8 4.5-9.5 5.2-10.6 5.9-8.6.5 1.3 2 3.8 3.4 5.6zm-39.9 19.5c-.3.8-.6.5-.6-.6-.1-1.1.2-1.7.5-1.3.3.3.4 1.2.1 1.9zM135.8 617.1c5.9 2.2 22 5.9 25.9 5.9 4.1 0 3.3 1.8-1.4 3.4-19.8 6.3-32.1 11-35.1 13.3-2.7 2-3.4 2.3-2.9.9.4-1 .7-8.2.7-16.2v-14.3l3.6 2.4c1.9 1.3 6.1 3.4 9.2 4.6zm202.2-.7c0 .8-3.1 4.7-6.9 8.7-4.2 4.6-7.1 8.6-7.5 10.6l-.7 3.2h16.2c16.5.1 23.7 1 9.3 1.2l-7.9.2 7.6.8c7.9.8 16 2.7 12.4 2.8-1.1 0-6.5-.6-12-1.4-9.8-1.4-10-1.4-11.7.6-2.1 2.5-2.4 8.8-.5 11.1.6.8 4.9 2.3 9.5 3.3 4.5 1 8.2 2.2 8.2 2.6 0 1.1-8.7 3.4-26 6.8-8.5 1.7-15.6 3.1-15.8 3.1s-1.7 1.5-3.3 3.2l-3 3.3-1.9-2.3c-3.9-4.8-5.2-14.5-2.2-16.8 1.4-1.2 1.5-1.5.3-2.3s-1.2-1.6.4-5.8c1-2.6 2.7-6 3.8-7.5 3.6-4.8 28.6-26.1 31.5-26.7.1-.1.2.5.2 1.3zm-153.6 9.7c6.7 1.1 12.4 2.3 12.7 2.7s1.1 3.4 1.8 6.6c1.3 6.7.7 8-4.6 10.3-5.3 2.1-19.8 1.2-22.4-1.4-1.3-1.3-1.7-20.3-.6-20.3.6 0 6.4.9 13.1 2.1zm-36.9 16.7c1.6 3.7 5 8.8 7.4 11.5 6.1 6.6 11.9 8.2 25.7 7.3 19.3-1.2 27.4-4.8 31.9-14 2.2-4.6 3.1-5.5 6-6 9.5-1.8 20.2 2.9 29.8 13.2 5 5.5 6.7 8.7 6.7 12.9 0 1.8 1.1 3.6 3.2 5.3l3.2 2.7-3 3.9c-1.6 2.1-5.1 6.6-7.7 9.9-2.7 3.3-5.8 7.8-7 10l-2.1 4-1.2-7c-.7-3.9-1.3-7.5-1.3-8.2-.1-.7 3-3.7 6.8-6.7 8.7-7 10.7-8.9 9.3-9.4-1.4-.4-12.6 7.2-14.6 9.9-1.4 2-1.5 1.8-2.6-3.8-1.3-6.5-6.8-18.5-8.7-19.1-.9-.3-.9.9.2 4.5 1.7 5.8 4.8 27 7 48 1.1 11 1.3 16.9.6 21.5-1.1 6.8-4.7 23.8-5.3 24.2-.9.7-15.5 4.9-23.8 6.8-8.5 1.9-12.4 2.2-36.5 2.2-14.8 0-29.2-.3-31.9-.7l-4.8-.9.6-4.1c.4-2.3 2.2-11.2 4.1-19.8s3.8-18.9 4.1-22.8c.6-6.2 1-7.4 2.9-8.1 2.2-.8 2.7-2.5 8-27.5 1.2-6.1 2.8-12.9 3.4-15.1 1.1-4.2.7-7.4-1.1-7.4-1.5 0-3.9 6.9-5.7 16.3-1.2 6.7-1.9 8.6-3 8.2-.8-.3-7.6-1.7-15-3-7.5-1.3-16.3-3-19.7-3.6l-6.1-1.2 6.1-12.9c7.9-16.6 9.9-19.1 19.9-23.9 4.5-2.1 8.8-3.9 9.6-3.9 1 0 2.8 2.7 4.6 6.8zm211.4 4.8c4.2.9 4 2.8-.1 2-1.8-.3-6.6-.6-10.5-.7-4-.1-7.3-.6-7.3-1 0-1 13.2-1.2 17.9-.3zm-1.6 6.1c3.5.5 3.7.7 2.3 2.1s-2.2 1.4-7.8-.2c-11.1-3.2-11.8-3.6-4.8-3 3.6.3 8.2.8 10.3 1.1zm-60.8 15.5c1 2.9 2.4 6.3 3.2 7.6 1.3 2.1 1.1 2.6-2.7 7-2.3 2.6-7.5 10.3-11.6 17.2-9.7 16.2-13.7 21.6-17.5 23.6-2.9 1.5-3.5 1.5-7.4-.1-4.9-1.8-11.9-8.9-14.1-14-1.8-4.5-1-6.5 7.4-18.2l6.7-9.4.7 4c.7 4 6.6 17.1 7.8 17.1.3 0 2.6-4.2 5.2-9.3 2.5-5.1 6.8-11.9 9.5-15.2s6.2-8.1 7.7-10.8c1.6-2.6 2.9-4.7 3.1-4.7s1.1 2.4 2 5.2zm-166.7 14.9c15.6 2.6 19.2 3.5 19.2 4.8 0 1.6-3.6 13.6-4.5 15.1-.6 1-15.3-1.6-24-4.4-8.6-2.7-20.5-9.1-20.5-11 0-.7.9-2.1 2-3.1s2.2-2.6 2.6-3.7c.4-1.5 1.2-1.9 3.2-1.5 1.5.3 11.4 2 22 3.8zm-3.6 20.9 8.7 1.3-1.3 2.6c-1.6 3-5.6 14.9-8.1 23.7l-1.7 6.1-5.8-6.2c-9-9.7-9.3-10.3-9.8-22.1l-.5-10.5 4.9 1.9c2.7 1.1 8.8 2.5 13.6 3.2zm11.2 17.2c-2 11.9-3.4 18.6-7.7 36.7l-1.3 5.4-1.1-2.9c-2.3-5.7-2.3-7.2-.4-14.6 2.5-10.1 11.4-37.8 12.2-37.8.3 0-.4 6-1.7 13.2zm-9.8 49c-.3 1.3-1.1 5.4-1.6 9.2-1.2 7.7-1.3 8.1-3 7.1-1.3-.8-.5-11.9 1.1-16.2 1.2-3.1 4.4-3.2 3.5-.1zm98 132.7c-.3 6.9-.6 16-.6 20.1v7.5l-6.1-.3c-7.9-.5-10 .1-13.7 3.9l-3 3.1-.6-2.9c-.3-1.5-1.3-9.1-2.1-16.8s-1.7-15.4-2-17.1l-.7-3.1 8.9-2.2c4.9-1.2 10.9-2.8 13.3-3.5 7.7-2.3 7.4-2.8 6.6 11.3zm-77.1-8.9c3.9.5 9 1.5 11.3 2.1 4.4 1.2 4.4 1.2 3.9 5.3-.2 2.3-1.7 11-3.3 19.4-2.7 14.4-2.9 15.2-4.9 14.5-2.6-1-12-1-16.5-.1l-3.5.8v-43h3c1.7 0 6.2.5 10 1zm35.3 8c2 0 4.8-.7 6-1.6 1.3-.9 2.5-1.4 2.8-1.2.2.3.9 6.7 1.5 14.4.6 7.6 1.6 16.3 2.4 19.2l1.3 5.2-4.1 2.9c-6.4 4.4-8.6 7.3-9.6 12.4-.4 2.5-.6 4.9-.3 5.2s.1.5-.5.5-1.5-.6-2.1-1.3-5.4-4.2-10.6-7.7c-5.3-3.5-9.7-6.9-10-7.5-.2-.6.5-4.4 1.5-8.5 3-12 6.9-30.8 6.9-33.4v-2.4l5.5 1.9c3 1 7.2 1.9 9.3 1.9zm42.2 39.4c4.9 1.1 24.1 8 26.4 9.3.5.3-.6 1.2-2.4 1.9-4.6 2-16.5 1.7-30.4-.6-16.3-2.7-20.4-5.7-13.3-10 3.8-2.4 11.5-2.6 19.7-.6zm-26.5 3.8c.6 1.9 2.4 4.2 4.2 5.4 4.3 2.9 23.1 6.4 35 6.5 7.8.1 9.7-.2 12.7-2l3.5-2.2 5.3 2.7 5.3 2.7-8 1.9c-13.1 3-26.1 3.4-40.1 1-13.7-2.4-21.6-5-25.8-8.7l-2.9-2.5 4.2-4c2.3-2.2 4.5-4 4.9-4s1.2 1.5 1.7 3.2zm-49.4-1c4.9 1.7 24.4 13.2 24.4 14.3 0 3.4-27.6.1-36.5-4.3-5.4-2.7-9.9-8-8.5-10.2.9-1.4 16.4-1.3 20.6.2zm-22.5 4.9c3.2 7.3 10.3 10.3 30.7 12.9 6.6.9 9.9.9 13.6 0 4.6-1.1 5.1-1 9 1.6 2.3 1.4 4.1 3 4.1 3.5 0 2.9-18.1 7.9-28.4 7.9-13 0-32.9-6.4-38.3-12.2-3-3.3-3.8-8.1-1.7-10.3 1.7-1.7 1.9-1.6 3.5.4 2.5 3.1 2.9 2.7 2.9-2.9 0-6.3 1.9-6.7 4.6-.9zm76.1 12.7c17.3 4.9 22.1 5.5 38.3 4.7 8-.5 15.5-.9 16.7-.9 1.1-.1 1.9-.5 1.6-.9-.2-.4 1.2-.6 3.2-.4 2.7.3 3.5.1 3.1-.9s.1-1.1 2.2-.4c2.6 1 2.6 1 .7-.6l-2-1.7 2 .8c1.1.4 3 1 4.3 1.2 3.3.8 2.7 2-1.5 2.6-2.1.3-7.8 1.3-12.8 2.2-15 2.6-32.6 3.1-43.5 1.1-17.3-3.2-30-8.5-30-12.5 0-2.9.9-3 4-.1 1.9 1.8 6.2 3.6 13.7 5.8zm-75.9 10.4c16.7 7.4 41.9 7.5 55.3.1 4.4-2.4 5.2-2.5 7.4-1.3 3.2 1.7 2.5 2.1-8.5 5-26.6 6.8-60.3.7-67.2-12.4-.6-1.2.8-.3 3.6 2.2 2.6 2.4 6.9 5.3 9.4 6.4z"/>
    <path d="M195.8 521.7c1.2.2 3.2.2 4.5 0 1.2-.2.2-.4-2.3-.4s-3.5.2-2.2.4zM247.3 521.7c3.1.2 8.3.2 11.5 0 3.1-.2.5-.3-5.8-.3s-8.9.1-5.7.3zM204.3 522.7c.9.2 2.3.2 3 0 .6-.3-.1-.5-1.8-.5-1.6 0-2.2.2-1.2.5zM186.4 524.2c-8 3.8-10 26.3-3 34.4 1.9 2.3 2.7 2.6 5.9 2 7.6-1.4 11-10.2 8.8-22.4-1.4-7.6-3.2-11.5-6.3-13.6-2.6-1.8-2.6-1.8-5.4-.4zM265.8 525.7c-5 5.7-8.3 17.6-7.5 27 .6 8 2.9 11.7 7.6 12.1 4.2.4 7.5-1.8 10.3-7.1 2-3.7 2.3-5.7 2.3-16.4 0-11.5-.1-12.3-2.4-14.7-2.9-3.1-8-3.5-10.3-.9zM232.4 560.1c-3.3.9-6.1 3.5-5.1 4.5.3.4 2 .1 3.8-.5 6.9-2.4 7.4-1.5 2.5 4.1-6.5 7.4-9.6 14-9.6 20.3 0 7.9 4.6 12.5 12.6 12.5 3.1 0 4.5-.7 8.1-4.5 4.8-5.1 5.4-8.2 2.4-13-1-1.7-3.6-3.9-5.8-4.9l-4.1-1.8 2.9-5.5c3.4-6.4 3.7-9.8 1-11.3-2.3-1.2-4.4-1.2-8.7.1zm9.6 34.3c0 .2-.8 1-1.7 1.7-1.6 1.3-1.7 1.2-.4-.4s2.1-2.1 2.1-1.3zM140.3 897.7c.9.2 2.3.2 3 0 .6-.3-.1-.5-1.8-.5-1.6 0-2.2.2-1.2.5zM2.7 1013.7c-2.5.4-2.7.8-2.7 5.4 0 4.8.1 4.9 3 4.9 3 0 3-.1 3-5.5 0-3-.1-5.4-.2-5.4-.2.1-1.5.4-3.1.6z"/>
</svg>
