<svg height="1024pt" preserveAspectRatio="xMidYMid meet" viewBox="0 0 1024 1024" width="1024pt" xmlns="http://www.w3.org/2000/svg"><g transform="matrix(.1 0 0 -.1 0 1024)"><path d="m4310 9780c-417-10-596-26-879-75-430-76-750-194-1066-394-125-78-224-159-316-256-219-231-286-541-176-813 68-168 258-375 479-520 76-49 172-108 215-130 190-98 504-217 686-260l77-18-87-42c-49-22-115-49-148-59-105-31-110-98-13-169 27-20 47-39 44-41-3-3-45 1-93 8-48 8-158 14-243 14-179 0-216-11-245-71-22-46-16-70 15-66 48 6 68-6 77-45 17-75 72-92 310-95 127-2 134-1 158 22 34 32 32 53-9 93-45 45-110 76-190 89-105 17-81 31 37 22 123-11 315-9 697 5 385 15 410 20 516 99l50 39 140-8c196-11 627-10 838 1 443 25 988 108 1376 211 605 160 1077 431 1314 752 69 94 99 157 127 268 36 141 16 304-55 454-37 79-152 223-242 303-265 239-804 461-1334 552-413 70-850 112-1315 125-110 3-252 7-315 9s-257 0-430-4zm959-80c96-6 314-24 485-40 466-43 767-96 1040-182 412-130 692-300 857-521 147-198 193-370 154-572-33-176-161-362-353-513-231-182-428-286-770-408-337-120-780-206-1317-255-158-15-1008-19-1022-6-4 5 4 18 20 29 26 19 35 42 19 52-14 8-92-32-161-83-100-74-189-119-268-135-114-24-361-45-563-48-212-3-220-1-280 89-36 55-37 53 64 71 80 15 191 68 226 109 51 57 87 143 61 143-5 0-21-14-34-32l-25-32-124 38c-176 54-195 61-331 112-365 139-649 335-794 549-94 139-132 253-140 420-5 93-2 122 16 190 131 479 682 849 1451 974 172 28 386 51 559 61 182 11 997 4 1230-10zm-2567-2746c-46-28-116-41-127-25-12 20 57 51 115 51h55zm184-45c63-13 84-24 84-45 0-29-31-44-92-44-66 0-113 18-149 56-20 21-21 27-9 34 20 13 95 12 166-1zm-126-102 24-17h-28c-31 0-86 48-86 76 0 15 6 12 33-13 17-16 43-37 57-46zm269-3c-19-21-31-24-83-23l-61 2 46 6c27 4 61 18 80 33 39 30 52 18 18-18z"/><path d="m6434 7058c-20-38-15-107 13-188l20-56-276 1h-276l-74-27c-108-40-151-69-226-150-80-87-117-148-148-243-43-135-23-485 27-485 9 0 15 17 19 46 2 26 24 84 48 133l44 86 5-70c5-58 15-86 57-168l51-98-15-47c-21-65-11-896 12-1077 32-254 72-432 111-493 14-21 13-24-16-48-46-39-64-114-57-243 5-113 18-137 61-126 20 6 19 5-2-14-22-20-42-68-42-103 0-27 37-58 68-58 37 0 69 24 90 68 12 27 27 40 52 48 36 12 48 28 30 39-22 13-71-8-119-51-27-24-52-44-55-44-11 0-6 45 7 60 24 30 78 61 144 83 85 28 94 47 21 47-59-1-118-19-151-46-12-10-3 2 21 27 27 28 59 51 83 58 28 9 39 17 39 32 0 27-20 32-69 19-45-12-111-63-111-86 0-8-5-14-10-14-25 0 22 110 65 150 22 21 39 26 103 30 59 4 77 8 77 20 0 39-157 34-205-7-17-14-30-23-30-21 0 3 7 25 16 50 16 49 41 67 138 98 49 16 168 7 226-16 68-27 80-52 80-163 0-89-3-102-34-166-39-81-46-88-186-184-141-97-309-248-310-279 0-57 239-298 384-387 15-9 13-32-19-275-19-146-47-350-62-455-35-253-35-256 2-275l30-15-6-75c-4-41-15-246-24-455s-23-426-30-483c-8-56-12-108-9-116 6-15 85-70 142-100 17-9 32-20 32-24s-24-20-52-37c-63-36-144-109-164-147-42-81 15-178 121-207 101-28 271-1 382 59l53 28 21-35c30-48 108-107 173-132 72-27 202-43 279-36 87 9 203 41 260 73 68 36 132 110 146 168 11 43 10 51-15 101-15 32-40 63-58 75l-33 22 31 31c17 17 47 62 66 100l35 70-2 235c-3 244-26 705-44 895-8 84-8 126 2 181l12 71 22-25c28-32 116-44 144-18 16 15 19 15 31 1 17-21 73-19 93 3 45 50 71 243 48 355-20 93-90 155-159 141-30-6-30-6-45 62-9 38-19 93-23 121-6 46-4 53 12 59 55 19 109 50 153 90l49 44-78 193c-192 473-188 466-270 525-36 27-84 70-105 96l-39 48 29 22c89 64 113 86 143 131l34 50 72 7c121 11 220 58 316 150 61 58 91 99 134 184 27 53 43 74 61 78 16 4 30 19 39 41 8 19 32 60 54 92 89 132 125 227 142 382 9 81 8 111-4 163-13 58-14 79-1 66 3-3 14-29 24-59 32-91 43-76 35 47-4 60-11 120-16 133-14 38-3 35 36-10 46-55 51-43 43 112-3 65-4 119-3 119 2 0 20-25 41-55 20-30 42-55 48-55s8 31 4 88c-8 139-89 342-193 482-198 270-400 443-679 583-199 99-383 160-645 212-254 50-359 87-453 159l-47 36zm-689-1067c15-36 39-90 55-118 22-41 24-51 10-43-40 21-91 86-125 158-40 83-41 110-8 179l17 38 13-74c7-41 24-104 38-140zm424-433c183-124 479-271 634-314 186-52 272-73 340-84l69-12-6-32c-28-136-39-228-40-336-1-111 2-131 23-178 41-90 148-163 273-184 93-16 126 2 199 111 31 46 67 96 80 110 34 38 100 81 125 81 21 0 57-32 67-62 11-30-13-130-45-190-34-65-140-171-211-213-52-30-170-64-229-67-31-1-39-6-49-31-7-16-33-50-58-76-61-63-153-94-357-121-83-11-175-24-204-30-59-11-306-13-388-3l-53 6 8 31c15 57 8 120-18 186-15 36-32 84-38 107-13 48-49 94-100 129-87 59-115 83-123 104-6 16-5 26 4 31 20 12 5 18-21 8-40-16-21-60 65-152 76-81 110-124 103-131-2-3-24 0-49 4-69 14-152 12-206-5-27-8-52-15-56-15-17 0-58 105-86 220-54 223-67 337-82 685-5 132-13 279-16 328-5 76-4 86 9 81 26-9 148 57 197 107l45 45 45-33c25-19 92-66 149-105zm1036-1678c17-18 63-59 103-91l72-58-67-54c-38-30-129-94-203-142s-173-113-220-145c-47-31-104-67-127-79l-42-21-24 33c-14 17-47 77-75 132l-51 99 37 21c42 24 280 194 328 234 17 14 41 33 54 41 12 8 35 25 50 37 31 26 98 44 120 32 8-4 29-22 45-39zm-829-8c6-4 40-52 77-108 37-55 76-109 87-119 25-23 25-32 0-40-30-9-44-42-27-59 8-8 26-49 41-93 16-43 35-86 43-95s12-22 7-29c-5-8-3-10 6-4 9 5 10 2 6-12-6-18 45-93 63-93 5 0-7 16-25 36-19 19-34 40-34 46 0 5 13-4 29-21 60-64 122-59 201 15 26 24 50 44 53 44 15 0 81-138 122-256 24-71 52-141 60-156 10-17 12-28 6-28s-11 7-11 15-5 15-11 15c-16 0-5-64 17-92 14-20 15-20 9-3-4 11-8 27-10 35-1 8 0 9 2 3 3-7 9-13 15-13 5 0 7 8 4 17-6 14-4 14 14-2 16-14 41-21 92-23 45-3 65-8 57-13-11-7-10-9 4-9 9 0 17 5 17 10 0 18 16 11 17-7 1-10 8-56 17-103 10-54 17-156 18-280l3-195-34-65c-31-61-59-104-106-159-30-36-157-116-212-134-211-68-402-70-598-5-94 31-252 105-295 137l-24 19 17 109c10 59 28 198 42 308 21 172 40 324 61 491 3 26 24 72 58 125 29 46 82 140 117 208 58 112 64 129 64 185 0 54-7 76-62 191-33 72-64 149-68 173l-7 42h34c18 0 38-4 44-8zm533-10c-15-9-73-55-130-101-56-46-117-93-136-103l-32-20-29 34c-59 67-79 94-105 139-15 25-27 49-27 53 0 3 60 4 133 1 72-3 173-2 222 3 140 14 134 15 104-6zm-566-222c71-160 70-169-22-350-72-142-144-260-159-260-14 0-185 144-244 205-32 33-68 79-80 102-21 39-22 45-8 68 14 22 185 166 315 264 28 21 68 58 90 82 37 42 41 43 49 24 4-11 31-72 59-135zm1122-55c113-293 149-384 176-437 16-32 29-62 29-67s-51-34-112-64c-118-58-244-94-337-99l-55-3-41 100c-48 116-116 251-152 307-14 21-24 40-22 41 2 2 54 34 114 72 150 95 289 198 321 241 15 19 28 33 30 31 2-1 24-56 49-122zm15-697c0-33 22-158 38-213 8-28 11-30 54-27 61 5 105-19 125-66 18-42 14-202-7-282-13-51-44-99-57-87-4 5-10 39-13 75l-5 67-24-40c-56-94-66-105-91-105-32 0-66 24-84 59-12 22-14 58-10 172 5 126 3 160-19 274-14 72-28 138-32 148-5 12-2 17 11 18 11 0 37 9 59 19 54 25 55 25 55-12z"/><path d="m6020 5616c0-2 7-7 16-10 8-3 12-2 9 4-6 10-25 14-25 6z"/><path d="m5773 5360c-15-6-23-18-23-33 0-22 3-23 53-19 46 3 61-1 140-41l87-45v37c0 43-24 71-82 96-40 16-139 19-175 5z"/><path d="m6370 5219c0-27 35-85 56-93 8-3 56-11 107-17 109-12 155-23 220-50 46-19 94-18 81 2-3 5-9 7-14 4s-12 6-15 20-7 36-10 49c-7 36-50 47-252 65-57 5-117 17-134 25-40 20-39 20-39-5z"/><path d="m5883 5098c-37-41-42-61-36-143l6-78-24 16c-13 10-27 17-32 17s-7-31-5-70c4-84 28-122 79-131 64-10 98 7 121 58 18 40 20 61 16 163-3 93-8 123-24 151-26 44-69 51-101 17z"/><path d="m6448 4977c-37-31-51-88-46-193 4-101 20-142 61-162 62-30 112 17 130 121 8 51 7 76-7 137-25 114-76 149-138 97z"/><path d="m7110 2844c0-8 5-12 10-9 6 4 8 11 5 16-9 14-15 11-15-7z"/><path d="m7301 2504c0-11 3-14 6-6 3 7 2 16-1 19-3 4-6-2-5-13z"/><path d="m0 6434v-417l60 7c33 4 80 13 105 20l44 14 10-50c6-27 11-54 11-60 0-7-36-9-115-6l-115 5v-1545-1545l53 6c130 14 434 130 535 204 69 51 147 121 278 249l131 129-23-57c-13-32-24-64-24-71 0-19 29-43 60-50l26-6 1-131 2-132 40-51c22-29 63-74 91-102l51-50-7-67c-5-51-3-74 10-99 14-28 14-34 2-48-30-33-56-106-56-158 0-66 5-78 44-103 28-17 32-24 29-52-10-82-47-332-79-533-45-279-45-377 0-424 24-25 40-32 88-37l58-7v-117c0-64-3-158-6-208l-7-90-41-19c-119-53-186-176-142-261 39-75 161-134 331-161 178-29 250-24 413 30 34 11 83 24 110 27 39 6 48 11 50 30 2 12 5 22 7 22s34-7 72-17c129-31 424-16 648 34 82 18 95 26 95 62 0 30-4 32-355 191l-170 77-3 247-2 246h30c63 0 174 76 209 144 13 23 13 48 3 169-13 151-22 200-100 532-27 116-58 259-68 318l-18 108 29 142c15 78 30 184 33 235l4 92 20-37c29-55 55-80 112-108 88-44 155-28 226 53 22 25 85 117 141 206 55 89 122 185 149 213l49 53 155 25c178 29 241 50 329 108 140 95 143 198 7 256-61 26-204 45-280 36l-55-6 63 60c80 77 99 124 68 166-12 17-16 17-46 5-89-37-330-252-370-330-12-24-23-61-24-82-1-22-7-42-13-46-5-4-46-52-90-107s-92-113-107-130c-15-16-38-54-52-82-15-29-30-51-34-48s-13 28-20 56c-10 40-10 56 0 74 11 20 8 29-24 78-31 46-36 62-31 89 6 32 2 38-89 126-53 51-115 102-139 112-44 20-144 26-221 12-35-6-41-11-54-50-28-86-96-123-262-141-138-15-212 3-272 66-32 33-91 154-80 164 7 7 159 69 168 69 2 0 4-36 4-79 0-108 17-124 144-137 78-8 155 9 190 41 23 22 26 32 26 96 0 69 1 71 23 66 166-42 314-70 367-70 115 1 226 59 311 162 57 69 139 221 179 329 56 155 90 396 90 646 0 127 20 264 57 380l25 78 33-36c18-20 40-36 49-36 13 0 9 14-20 72l-36 72 17 73c14 57 16 102 12 210-9 253-68 391-243 567-186 185-562 356-904 412-177 29-505 26-660-5-216-44-378-106-550-212-142-87-200-107-200-71 0 35-51 121-99 165-73 68-168 111-309 141-67 14-131 26-142 26-20 0-20-8-20-416zm672-42c-94-99-152-185-197-297-41-101-95-285-95-324-1-25-3-24-44 21-57 62-82 156-79 300 1 113 20 187 63 245 65 88 221 144 374 135l51-3zm2061-757c-3-9-8-14-10-11-3 3-2 9 2 15 9 16 15 13 8-4zm-29-62c-19-45-74-194-74-201 0-3-2-3-5 0-9 8 79 238 90 238 3 0-2-17-11-37zm312-40c18-24 22-37 15-50-18-34-71-269-81-358-5-49-10-133-10-186 0-290-60-553-168-734-60-101-172-217-237-245-75-32-146-35-245-11-208 50-423 89-695 126-239 32-317 67-383 170-41 64-102 194-102 217 0 19-1 20-12 6-7-9-33-27-58-40-37-19-60-23-135-23-65 0-99 5-121 17-51 28-113 100-134 156-57 152 13 381 134 441 49 24 50 25 95 7 113-43 186-58 286-59 150 0 363 52 508 124 65 33 208 124 242 156 42 39 102 79 163 111 35 18 78 43 96 57s36 25 39 25c4 0-5-25-20-55-21-42-32-55-50-55-12 0-45-5-73-11-85-18-149-103-153-202l-2-52 46-9c25-5 67-6 92-2 51 8 65 21 199 190 35 44 92 104 127 135l64 56-26-50c-14-27-33-77-42-110-15-61-21-187-7-183 4 1 18-4 32-12 30-17 172-25 274-15l74 7 35 71c20 40 48 113 62 162 15 50 50 139 78 198 45 95 52 106 59 86 5-13 20-38 34-56zm-399-195c-3-8-6-5-6 6-1 11 2 17 5 13 3-3 4-12 1-19zm-1259-1269c59-22 220-59 259-59 41 0 33-18-14-34-198-63-321-110-351-133-27-20-34-23-29-9 4 10 7 82 7 162v143l36-24c19-13 61-34 92-46zm2022 7c0-8-31-47-69-87-42-46-71-86-75-106l-7-32h162c165-1 237-10 93-12l-79-2 76-8c79-8 160-27 124-28-11 0-65 6-120 14-98 14-100 14-117-6-21-25-24-88-5-111 6-8 49-23 95-33 45-10 82-22 82-26 0-11-87-34-260-68-85-17-156-31-158-31s-17-15-33-32l-30-33-19 23c-39 48-52 145-22 168 14 12 15 15 3 23s-12 16 4 58c10 26 27 60 38 75 36 48 286 261 315 267 1 1 2-5 2-13zm-1536-97c67-11 124-23 127-27s11-34 18-66c13-67 7-80-46-103-53-21-198-12-224 14-13 13-17 203-6 203 6 0 64-9 131-21zm-369-167c16-37 50-88 74-115 61-66 119-82 257-73 193 12 274 48 319 140 22 46 31 55 60 60 95 18 202-29 298-132 50-55 67-87 67-129 0-18 11-36 32-53l32-27-30-39c-16-21-51-66-77-99-27-33-58-78-70-100l-21-40-12 70c-7 39-13 75-13 82-1 7 30 37 68 67 87 70 107 89 93 94-14 4-126-72-146-99-14-20-15-18-26 38-13 65-68 185-87 191-9 3-9-9 2-45 17-58 48-270 70-480 11-110 13-169 6-215-11-68-47-238-53-242-9-7-155-49-238-68-85-19-124-22-365-22-148 0-292 3-319 7l-48 9 6 41c4 23 22 112 41 198s38 189 41 228c6 62 10 74 29 81 22 8 27 25 80 275 12 61 28 129 34 151 11 42 7 74-11 74-15 0-39-69-57-163-12-67-19-86-30-82-8 3-76 17-150 30-75 13-163 30-197 36l-61 12 61 129c79 166 99 191 199 239 45 21 88 39 96 39 10 0 28-27 46-68zm2114-48c42-9 40-28-1-20-18 3-66 6-105 7-40 1-73 6-73 10 0 10 132 12 179 3zm-16-61c35-5 37-7 23-21s-22-14-78 2c-111 32-118 36-48 30 36-3 82-8 103-11zm-608-155c10-29 24-63 32-76 13-21 11-26-27-70-23-26-75-103-116-172-97-162-137-216-175-236-29-15-35-15-74 1-49 18-119 89-141 140-18 45-10 65 74 182l67 94 7-40c7-40 66-171 78-171 3 0 26 42 52 93 25 51 68 119 95 152s62 81 77 108c16 26 29 47 31 47s11-24 20-52zm-1667-149c156-26 192-35 192-48 0-16-36-136-45-151-6-10-153 16-240 44-86 27-205 91-205 110 0 7 9 21 20 31s22 26 26 37c4 15 12 19 32 15 15-3 114-20 220-38zm-36-209 87-13-13-26c-16-30-56-149-81-237l-17-61-58 62c-90 97-93 103-98 221l-5 105 49-19c27-11 88-25 136-32zm112-172c-20-119-34-186-77-367l-13-54-11 29c-23 57-23 72-4 146 25 101 114 378 122 378 3 0-4-60-17-132zm-98-490c-3-13-11-54-16-92-12-77-13-81-30-71-13 8-5 119 11 162 12 31 44 32 35 1zm980-1327c-3-69-6-160-6-201v-75l-61 3c-79 5-100-1-137-39l-30-31-6 29c-3 15-13 91-21 168s-17 154-20 171l-7 31 89 22c49 12 109 28 133 35 77 23 74 28 66-113zm-771 89c39-5 90-15 113-21 44-12 44-12 39-53-2-23-17-110-33-194-27-144-29-152-49-145-26 10-120 10-165 1l-35-8v215 215h30c17 0 62-5 100-10zm353-80c20 0 48 7 60 16 13 9 25 14 28 12 2-3 9-67 15-144 6-76 16-163 24-192l13-52-41-29c-64-44-86-73-96-124-4-25-6-49-3-52s1-5-5-5-15 6-21 13-54 42-106 77c-53 35-97 69-100 75-2 6 5 44 15 85 30 120 69 308 69 334v24l55-19c30-10 72-19 93-19zm422-394c49-11 241-80 264-93 5-3-6-12-24-19-46-20-165-17-304 6-163 27-204 57-133 100 38 24 115 26 197 6zm-265-38c6-19 24-42 42-54 43-29 231-64 350-65 78-1 97 2 127 20l35 22 53-27 53-27-80-19c-131-30-261-34-401-10-137 24-216 50-258 87l-29 25 42 40c23 22 45 40 49 40s12-15 17-32zm-494 10c49-17 244-132 244-143 0-34-276-1-365 43-54 27-99 80-85 102 9 14 164 13 206-2zm-225-49c32-73 103-103 307-129 66-9 99-9 136 0 46 11 51 10 90-16 23-14 41-30 41-35 0-29-181-79-284-79-130 0-329 64-383 122-30 33-38 81-17 103 17 17 19 16 35-4 25-31 29-27 29 29 0 63 19 67 46 9zm761-127c173-49 221-55 383-47 80 5 155 9 167 9 11 1 19 5 16 9-2 4 12 6 32 4 27-3 35-1 31 9s1 11 22 4c26-10 26-10 7 6l-20 17 20-8c11-4 30-10 43-12 33-8 27-20-15-26-21-3-78-13-128-22-150-26-326-31-435-11-173 32-300 85-300 125 0 29 9 30 40 1 19-18 62-36 137-58zm-759-104c167-74 419-75 553-1 44 24 52 25 74 13 32-17 25-21-85-50-266-68-603-7-672 124-6 12 8 3 36-22 26-24 69-53 94-64z"/><path d="m1958 5023c12-2 32-2 45 0 12 2 2 4-23 4s-35-2-22-4z"/><path d="m2473 5023c31-2 83-2 115 0 31 2 5 3-58 3s-89-1-57-3z"/><path d="m2043 5013c9-2 23-2 30 0 6 3-1 5-18 5-16 0-22-2-12-5z"/><path d="m1864 4998c-80-38-100-263-30-344 19-23 27-26 59-20 76 14 110 102 88 224-14 76-32 115-63 136-26 18-26 18-54 4z"/><path d="m2658 4983c-50-57-83-176-75-270 6-80 29-117 76-121 42-4 75 18 103 71 20 37 23 57 23 164 0 115-1 123-24 147-29 31-80 35-103 9z"/><path d="m2324 4639c-33-9-61-35-51-45 3-4 20-1 38 5 69 24 74 15 25-41-65-74-96-140-96-203 0-79 46-125 126-125 31 0 45 7 81 45 48 51 54 82 24 130-10 17-36 39-58 49l-41 18 29 55c34 64 37 98 10 113-23 12-44 12-87-1zm96-343c0-2-8-10-17-17-16-13-17-12-4 4s21 21 21 13z"/><path d="m1403 1263c9-2 23-2 30 0 6 3-1 5-18 5-16 0-22-2-12-5z"/><path d="m27 103c-25-4-27-8-27-54 0-48 1-49 30-49 30 0 30 1 30 55 0 30-1 54-2 54-2-1-15-4-31-6z"/></g></svg>